<svg xmlns="http://www.w3.org/2000/svg" viewBox="0 0 64 64">
  <!-- 꼬리 곤봉 -->
  <path d="M54 40 C58 38 62 38 62 44 C62 48 58 50 54 46" fill="none" stroke="#cc8800" stroke-width="4" stroke-linecap="round"/>
  <circle cx="60" cy="44" r="5" fill="#ffaa00" stroke="#886600" stroke-width="2"/>
  <!-- 몸통 (낮고 넓은 기갑) -->
  <ellipse cx="32" cy="40" rx="22" ry="10" fill="#ddaa22" stroke="#886600" stroke-width="2.5"/>
  <!-- 기갑 판 (등 위) -->
  <ellipse cx="32" cy="34" rx="22" ry="8" fill="#ffcc44" stroke="#886600" stroke-width="2"/>
  <!-- 기갑 스파이크 -->
  <circle cx="14" cy="32" r="3" fill="#ffaa00" stroke="#886600" stroke-width="1.5"/>
  <circle cx="20" cy="30" r="3.5" fill="#ffaa00" stroke="#886600" stroke-width="1.5"/>
  <circle cx="26" cy="29" r="3.5" fill="#ffaa00" stroke="#886600" stroke-width="1.5"/>
  <circle cx="32" cy="28" r="4" fill="#ffaa00" stroke="#886600" stroke-width="1.5"/>
  <circle cx="38" cy="29" r="3.5" fill="#ffaa00" stroke="#886600" stroke-width="1.5"/>
  <circle cx="44" cy="30" r="3.5" fill="#ffaa00" stroke="#886600" stroke-width="1.5"/>
  <circle cx="50" cy="32" r="3" fill="#ffaa00" stroke="#886600" stroke-width="1.5"/>
  <!-- 옆면 스파이크 -->
  <path d="M12 36 C8 34 6 38 10 40" fill="#ffaa00" stroke="#886600" stroke-width="1.2"/>
  <path d="M14 40 C10 40 8 44 12 44" fill="#ffaa00" stroke="#886600" stroke-width="1.2"/>
  <path d="M52 36 C56 34 58 38 54 40" fill="#ffaa00" stroke="#886600" stroke-width="1.2"/>
  <path d="M50 40 C54 40 56 44 52 44" fill="#ffaa00" stroke="#886600" stroke-width="1.2"/>
  <!-- 다리 (짧고 두꺼운) -->
  <rect x="14" y="46" width="8" height="10" rx="4" fill="#cc8800" stroke="#886600" stroke-width="1.8"/>
  <rect x="24" y="46" width="8" height="10" rx="4" fill="#cc8800" stroke="#886600" stroke-width="1.8"/>
  <rect x="36" y="46" width="8" height="10" rx="4" fill="#cc8800" stroke="#886600" stroke-width="1.8"/>
  <rect x="46" y="46" width="8" height="10" rx="4" fill="#cc8800" stroke="#886600" stroke-width="1.8"/>
  <!-- 머리 (낮고 넓은) -->
  <path d="M2 34 C2 28 6 24 12 24 C18 24 22 28 20 36 C18 40 12 40 6 38 C2 36 2 36 2 34Z" fill="#ffcc44" stroke="#886600" stroke-width="2"/>
  <!-- 뿔 (머리 양 옆) -->
  <path d="M6 24 C4 20 6 16 8 18 C8 21 6 24 6 24Z" fill="#ffaa00" stroke="#886600" stroke-width="1.2"/>
  <path d="M14 23 C14 19 16 16 18 18 C17 21 14 23 14 23Z" fill="#ffaa00" stroke="#886600" stroke-width="1.2"/>
  <!-- 눈 -->
  <circle cx="6" cy="32" r="2.5" fill="#ffe066" stroke="#886600" stroke-width="1"/>
  <circle cx="6" cy="32" r="1.2" fill="#1a1a1a"/>
  <!-- 코 -->
  <ellipse cx="2" cy="36" rx="2" ry="1.5" fill="#886600"/>
</svg>
