<svg xmlns="http://www.w3.org/2000/svg" viewBox="0 0 64 64">
  <!-- 꼬리 (길고 줄무늬) -->
  <path d="M44 42 C52 46 58 50 60 58" fill="none" stroke="#4a9a4a" stroke-width="5" stroke-linecap="round"/>
  <path d="M44 42 C52 46 58 50 60 58" fill="none" stroke="#2a7a2a" stroke-width="1.2" stroke-dasharray="4,6" stroke-linecap="round"/>
  <!-- 몸통 -->
  <ellipse cx="28" cy="36" rx="20" ry="10" fill="#55aa55" stroke="#2a7a2a" stroke-width="2"/>
  <!-- 등 가시 볏 -->
  <path d="M16 28 L18 22 L22 28 L24 18 L28 28 L30 20 L34 28 L36 22 L40 28 L42 24 L44 28" fill="none" stroke="#2a7a2a" stroke-width="2" stroke-linejoin="round"/>
  <!-- 배 (연한) -->
  <ellipse cx="28" cy="42" rx="16" ry="6" fill="#88cc88" stroke="#44aa44" stroke-width="1"/>
  <!-- 앞다리 -->
  <path d="M18 38 C12 40 8 44 10 48" fill="none" stroke="#2a7a2a" stroke-width="2.5" stroke-linecap="round"/>
  <line x1="10" y1="48" x2="6" y2="50" stroke="#2a7a2a" stroke-width="1.8" stroke-linecap="round"/>
  <line x1="10" y1="48" x2="8" y2="52" stroke="#2a7a2a" stroke-width="1.8" stroke-linecap="round"/>
  <line x1="10" y1="48" x2="12" y2="52" stroke="#2a7a2a" stroke-width="1.8" stroke-linecap="round"/>
  <!-- 뒷다리 -->
  <path d="M36 42 C32 46 32 52 36 54" fill="none" stroke="#2a7a2a" stroke-width="2.5" stroke-linecap="round"/>
  <line x1="36" y1="54" x2="32" y2="56" stroke="#2a7a2a" stroke-width="1.8" stroke-linecap="round"/>
  <line x1="36" y1="54" x2="34" y2="58" stroke="#2a7a2a" stroke-width="1.8" stroke-linecap="round"/>
  <line x1="36" y1="54" x2="40" y2="58" stroke="#2a7a2a" stroke-width="1.8" stroke-linecap="round"/>
  <!-- 목 -->
  <ellipse cx="12" cy="32" rx="7" ry="10" fill="#44aa44" stroke="#2a7a2a" stroke-width="2"/>
  <!-- 목 주름살 (이구아나 특징) -->
  <path d="M6 36 C4 40 6 44 10 44" fill="none" stroke="#2a7a2a" stroke-width="1.2" opacity="0.6"/>
  <path d="M6 32 C2 36 4 42 8 42" fill="none" stroke="#2a7a2a" stroke-width="1" opacity="0.4"/>
  <!-- 머리 -->
  <ellipse cx="6" cy="26" rx="8" ry="7" fill="#3a9a3a" stroke="#2a7a2a" stroke-width="2"/>
  <!-- 눈 -->
  <circle cx="4" cy="22" r="4" fill="#3a9a3a" stroke="#2a7a2a" stroke-width="1.5"/>
  <circle cx="4" cy="22" r="2.8" fill="#eecc44"/>
  <circle cx="4" cy="22" r="1.5" fill="#1a1a1a"/>
  <circle cx="3.4" cy="21.4" r="0.6" fill="white"/>
  <!-- 혀 -->
  <path d="M0 28 C-2 28 -4 30 -4 32" fill="none" stroke="#cc2222" stroke-width="2" stroke-linecap="round"/>
  <line x1="-4" y1="32" x2="-6" y2="34" stroke="#cc2222" stroke-width="1.5" stroke-linecap="round"/>
  <line x1="-4" y1="32" x2="-2" y2="34" stroke="#cc2222" stroke-width="1.5" stroke-linecap="round"/>
</svg>