<svg xmlns="http://www.w3.org/2000/svg" viewBox="0 0 64 64">
  <!-- 꼬리 (굵고 긴) -->
  <path d="M54 30 C60 26 64 20 62 14 C60 10 56 12 56 18 C56 22 60 24 60 20" fill="none" stroke="#6633aa" stroke-width="4" stroke-linecap="round"/>
  <!-- 몸통 (탄탄한) -->
  <ellipse cx="30" cy="34" rx="20" ry="11" fill="#9955cc" stroke="#5522aa" stroke-width="2"/>
  <!-- 로제트 무늬 (재규어 특징: 중앙 점 있는 로제트) -->
  <circle cx="20" cy="30" r="4" fill="none" stroke="#3a1a66" stroke-width="1.5"/>
  <circle cx="20" cy="30" r="1.8" fill="#3a1a66" opacity="0.6"/>
  <circle cx="30" cy="28" r="4" fill="none" stroke="#3a1a66" stroke-width="1.5"/>
  <circle cx="30" cy="28" r="1.8" fill="#3a1a66" opacity="0.6"/>
  <circle cx="40" cy="30" r="4" fill="none" stroke="#3a1a66" stroke-width="1.5"/>
  <circle cx="40" cy="30" r="1.8" fill="#3a1a66" opacity="0.6"/>
  <circle cx="24" cy="38" r="3.5" fill="none" stroke="#3a1a66" stroke-width="1.5"/>
  <circle cx="24" cy="38" r="1.5" fill="#3a1a66" opacity="0.6"/>
  <circle cx="36" cy="38" r="3.5" fill="none" stroke="#3a1a66" stroke-width="1.5"/>
  <circle cx="36" cy="38" r="1.5" fill="#3a1a66" opacity="0.6"/>
  <!-- 배 (연한) -->
  <ellipse cx="30" cy="41" rx="14" ry="6" fill="#cc99ff" stroke="#7744bb" stroke-width="1"/>
  <!-- 앞다리 -->
  <path d="M16 40 C10 42 8 48 10 54" fill="none" stroke="#5522aa" stroke-width="3" stroke-linecap="round"/>
  <line x1="10" y1="54" x2="6" y2="56" stroke="#5522aa" stroke-width="2"/>
  <line x1="10" y1="54" x2="8" y2="58" stroke="#5522aa" stroke-width="2"/>
  <line x1="10" y1="54" x2="12" y2="58" stroke="#5522aa" stroke-width="2"/>
  <!-- 뒷다리 -->
  <path d="M44 40 C50 42 52 48 50 54" fill="none" stroke="#5522aa" stroke-width="3" stroke-linecap="round"/>
  <line x1="50" y1="54" x2="46" y2="56" stroke="#5522aa" stroke-width="2"/>
  <line x1="50" y1="54" x2="48" y2="58" stroke="#5522aa" stroke-width="2"/>
  <line x1="50" y1="54" x2="52" y2="58" stroke="#5522aa" stroke-width="2"/>
  <!-- 목 -->
  <ellipse cx="12" cy="28" rx="7" ry="9" fill="#8844bb" stroke="#5522aa" stroke-width="2"/>
  <!-- 머리 (크고 네모진) -->
  <ellipse cx="8" cy="18" rx="10" ry="9" fill="#8844bb" stroke="#5522aa" stroke-width="2"/>
  <!-- 귀 (작고 둥근) -->
  <path d="M2 10 C2 6 6 6 6 10" fill="#8844bb" stroke="#5522aa" stroke-width="1.5"/>
  <path d="M10 9 C12 5 14 6 12 10" fill="#8844bb" stroke="#5522aa" stroke-width="1.5"/>
  <!-- 눈 (초록) -->
  <circle cx="4" cy="16" r="3" fill="#66ff99" stroke="#1a0a33" stroke-width="1.2"/>
  <circle cx="4" cy="16" r="1.5" fill="#1a1a1a"/>
  <circle cx="3.4" cy="15.4" r="0.6" fill="white"/>
  <!-- 코 -->
  <ellipse cx="2" cy="22" rx="2" ry="1.5" fill="#1a0a33"/>
  <!-- 수염 -->
  <line x1="6" y1="21" x2="0" y2="19" stroke="#5522aa" stroke-width="0.8" opacity="0.6"/>
  <line x1="6" y1="23" x2="0" y2="24" stroke="#5522aa" stroke-width="0.8" opacity="0.6"/>
  <!-- 머리 로제트 -->
  <circle cx="12" cy="16" r="3" fill="none" stroke="#3a1a66" stroke-width="1.2"/>
  <circle cx="12" cy="16" r="1.2" fill="#3a1a66" opacity="0.5"/>
</svg>
