<svg xmlns="http://www.w3.org/2000/svg" viewBox="0 0 64 64">
  <!-- 몸통 반구 -->
  <ellipse cx="32" cy="36" rx="18" ry="14" fill="#e03030" stroke="#1a4009" stroke-width="2"/>
  <!-- 등딱지 가운데 선 -->
  <line x1="32" y1="22" x2="32" y2="50" stroke="#1a1a1a" stroke-width="2"/>
  <!-- 점무늬 -->
  <circle cx="22" cy="33" r="4" fill="#1a1a1a"/>
  <circle cx="42" cy="33" r="4" fill="#1a1a1a"/>
  <circle cx="24" cy="43" r="3.5" fill="#1a1a1a"/>
  <circle cx="40" cy="43" r="3.5" fill="#1a1a1a"/>
  <!-- 반짝이 하이라이트 -->
  <ellipse cx="25" cy="28" rx="5" ry="3" fill="rgba(255,255,255,0.35)" transform="rotate(-20 25 28)"/>
  <!-- 머리 (검정) -->
  <ellipse cx="32" cy="22" rx="11" ry="8" fill="#1a1a1a" stroke="#000" stroke-width="1.5"/>
  <!-- 눈 -->
  <circle cx="26" cy="21" r="3" fill="white"/>
  <circle cx="38" cy="21" r="3" fill="white"/>
  <circle cx="27" cy="21" r="1.5" fill="#1a1a1a"/>
  <circle cx="39" cy="21" r="1.5" fill="#1a1a1a"/>
  <!-- 더듬이 -->
  <line x1="27" y1="15" x2="22" y2="8" stroke="#1a1a1a" stroke-width="1.5" stroke-linecap="round"/>
  <circle cx="21" cy="7" r="2" fill="#1a1a1a"/>
  <line x1="37" y1="15" x2="42" y2="8" stroke="#1a1a1a" stroke-width="1.5" stroke-linecap="round"/>
  <circle cx="43" cy="7" r="2" fill="#1a1a1a"/>
  <!-- 다리 -->
  <line x1="18" y1="36" x2="10" y2="32" stroke="#1a1a1a" stroke-width="1.5" stroke-linecap="round"/>
  <line x1="18" y1="40" x2="9" y2="40" stroke="#1a1a1a" stroke-width="1.5" stroke-linecap="round"/>
  <line x1="46" y1="36" x2="54" y2="32" stroke="#1a1a1a" stroke-width="1.5" stroke-linecap="round"/>
  <line x1="46" y1="40" x2="55" y2="40" stroke="#1a1a1a" stroke-width="1.5" stroke-linecap="round"/>
</svg>